<svg role="img" viewBox="0 0 24 24" xmlns="http://www.w3.org/2000/svg">
  <title>Jarb</title>
  <path 
     d="m 5.2760563,19.34847 h -1.2968 V 18.1739 h 2.50095 v 2.75633 q 0,0.62087 -0.24506,1.07453 -0.24507,0.44677 -0.67495,0.68083 -0.42336,0.23324 -0.94613,0.23324 -0.50316,0 -0.93287,-0.25376 -0.42337,-0.25378 -0.67494,-0.68083 -0.25158,-0.43363 -0.25158,-0.94109 h 1.20415 q 0,0.30715 0.17179,0.51411 0.1783,0.20696 0.47628,0.20696 0.31752,0 0.48931,-0.20039 0.17912,-0.20696 0.17912,-0.60034 z m 6.4706497,3.4705 H 7.4064763 l 2.17015,-4.74518 z M 7.7901963,22.57177 H 11.362986 L 9.5766263,18.66082 Z m 8.5879497,0.2472 h -3.53973 V 18.1739 h 1.79303 q 0.57561,0 0.93946,0.20696 0.35742,0.20039 0.55607,0.54696 0.19866,0.34658 0.19866,0.76706 0,0.52068 -0.31752,0.93435 -0.31753,0.40735 -0.80033,0.54039 z m -3.12288,-4.3982 1.79962,2.53614 q 0.44372,-0.0936 0.73438,-0.44758 0.29147,-0.35396 0.29147,-0.81387 0,-0.36711 -0.1783,-0.66769 -0.1783,-0.30058 -0.50315,-0.46073 -0.29147,-0.14701 -0.76125,-0.14701 z m -0.17179,0.16015 v 2.39596 h 1.70038 z m 0,3.99101 h 2.83174 l -0.96592,-1.35484 -0.20517,0.007 h -1.66065 z m 6.60962,-4.39811 q 0.43639,0 0.69448,0.13386 0.31101,0.16015 0.47629,0.4402 0.17179,0.28006 0.17179,0.62745 0,0.32686 -0.17179,0.60691 -0.17179,0.27349 -0.46977,0.43363 0.35741,0.12647 0.60248,0.4402 0.24506,0.31372 0.24506,0.70711 0,0.34739 -0.1783,0.64058 -0.17179,0.28662 -0.46326,0.45415 -0.14574,0.0821 -0.32404,0.11991 -0.17911,0.0411 -0.47628,0.0411 h -2.03785 V 18.17386 Z M 23.996596,0 15.483386,6.15365 C 15.024196,4.4616 14.093196,3.05946 12.691616,1.94697 11.266996,0.83441 9.6585363,0.278 7.8663163,0.278 c -1.44758,0 -2.76897,0.3474 -3.96375,1.043 -1.19487,0.69561 -2.13653,1.66914 -2.82588,2.92074 C 0.36429633,5.51659 0.00801633,7.16175 0.00801633,9.17819 v 8.86973 a 0.55264583,0.55746527 0 0 0 -0.0079999991,0.0328 0.55264583,0.55746527 0 0 0 0.0079999991,0.008 v 0.0246 A 0.55264583,0.55746527 0 0 0 1.63309e-5,18.12972 v 1.12259 a 0.55264583,0.55746527 0 0 0 0.5536399991,0.54532 0.55264583,0.55746527 0 0 1 0.003,-0.001 0.55264583,0.55746527 0 0 1 0.004,5e-4 0.55264583,0.55746527 0 0 1 -0.004,0.001 0.55264583,0.55746527 0 0 1 -0.003,-4.9e-4 0.55264583,0.55746527 0 0 0 -0.5536399991,0.56092 v 1.12258 A 0.55264583,0.55746527 0 0 0 0.55609633,22.02565 0.55264583,0.55746527 0 0 0 1.63309e-5,22.58739 v 0.86627 A 0.55270111,0.55752104 0 0 0 0.55690633,23.99897 h 0.25402 a 0.55264583,0.55746527 0 0 0 0.55688997,-0.54531 0.55264583,0.55746527 0 0 0 0.55689,0.54531 h 1.09757 a 0.55264583,0.55746527 0 0 0 0.55689,-0.54531 0.55264583,0.55746527 0 0 0 -4.9e-4,-0.005 h 0.002 a 0.55264583,0.55746527 0 0 0 -10e-4,0.005 0.55264583,0.55746527 0 0 0 0.55607,0.54531 h 1.09766 a 0.55264583,0.55746527 0 0 0 0.55607,-0.54449 0.55264583,0.55746527 0 0 1 0,-0.001 0.55264583,0.55746527 0 0 1 5.7e-4,0 0.55264583,0.55746527 0 0 1 -5.7e-4,0.001 0.55264583,0.55746527 0 0 0 0.55689,0.54449 h 1.09708 a 0.55264583,0.55746527 0 0 0 0.55607,-0.54449 0.55264583,0.55746527 0 0 1 0,-0.001 0.55264583,0.55746527 0 0 1 4.9e-4,0 0.55264583,0.55746527 0 0 1 -4.9e-4,0.001 0.55264583,0.55746527 0 0 0 0.55689,0.54449 h 1.09709 a 0.55264583,0.55746527 0 0 0 0.5568897,-0.54449 0.55264583,0.55746527 0 0 0 0.55607,0.54449 h 1.09757 a 0.55264583,0.55746527 0 0 0 0.55608,-0.54367 0.55264583,0.55746527 0 0 1 -5.7e-4,-0.002 0.55264583,0.55746527 0 0 1 5.7e-4,-0.003 0.55264583,0.55746527 0 0 1 4.8e-4,0.003 0.55264583,0.55746527 0 0 1 -4.8e-4,0.002 0.55264583,0.55746527 0 0 0 0.55688,0.54367 h 1.09709 a 0.55264583,0.55746527 0 0 0 0.55607,-0.54449 0.55264583,0.55746527 0 0 1 0,-0.001 0.55264583,0.55746527 0 0 1 5.7e-4,0 0.55264583,0.55746527 0 0 1 -5.7e-4,0.001 0.55264583,0.55746527 0 0 0 0.55689,0.54449 h 1.09708 a 0.55264583,0.55746527 0 0 0 0.55689,-0.54449 0.55264583,0.55746527 0 0 0 0.55607,0.54449 h 1.09758 a 0.55264583,0.55746527 0 0 0 0.55607,-0.54367 0.55264583,0.55746527 0 0 1 -5.7e-4,-0.002 0.55264583,0.55746527 0 0 1 5.7e-4,-0.003 0.55264583,0.55746527 0 0 1 4.9e-4,0.003 0.55264583,0.55746527 0 0 1 -4.9e-4,0.002 0.55264583,0.55746527 0 0 0 0.55689,0.54367 h 1.09708 a 0.55264583,0.55746527 0 0 0 0.55689,-0.54531 0.55264583,0.55746527 0 0 0 -5.7e-4,-0.005 h 0.002 a 0.55264583,0.55746527 0 0 0 -0.002,0.006 0.55264583,0.55746527 0 0 0 0.55689,0.54531 h 1.09757 a 0.55264583,0.55746527 0 0 0 0.55608,-0.54531 0.55264583,0.55746527 0 0 0 -0.0163,-0.0493 0.55264583,0.55746527 0 0 0 0.54061,-0.54532 V 21.7529 a 0.55264583,0.55746527 0 0 0 -0.55038,-0.56093 0.55264583,0.55746527 0 0 0 0.55119,-0.56174 v -1.10706 a 0.55264583,0.55746527 0 0 0 -0.55282,-0.56092 v -0.002 a 0.55264583,0.55746527 0 0 0 0.51537,-0.3589 h 0.0407 V 18.3985 18.07739 Z M 7.8663163,1.56451 c 1.58542,0 2.9871697,0.51 4.2049897,1.52985 1.21775,1.01984 1.98762,2.30594 2.30929,3.85878 L 1.2833163,16.40999 V 9.14362 c 0,-1.64564 0.25239,-2.97806 0.75799,-3.9979 0.55119,-1.13565 1.34402,-2.01687 2.37801,-2.64267 1.03399,-0.6258 2.18301,-0.93854 3.44676,-0.93854 z m 14.8550597,0.8693 v 14.88023 h -6.96215 V 8.58746 l -0.0326,-1.07766 z m -8.23746,5.94489 v 8.93534 H 2.1102663 Z M 0.56066633,22.02251 v 5.7e-4 a 0.55264583,0.55746527 0 0 0 -0.002,0 0.55264583,0.55746527 0 0 1 -0.002,5e-4 0.55264583,0.55746527 0 0 1 -5.7e-4,-5e-4 0.55264583,0.55746527 0 0 1 0.002,0 0.55264583,0.55746527 0 0 0 0.002,-5.7e-4 z M 1.3675063,23.4465 h 0.002 a 0.55264583,0.55746527 0 0 0 -0.001,0.003 0.55264583,0.55746527 0 0 0 -4.9e-4,-0.003 z m 4.42082,0 h 0.002 a 0.55264583,0.55746527 0 0 0 -9.8e-4,0.003 0.55264583,0.55746527 0 0 0 -5.7e-4,-0.003 z m 2.21021,0 h 0.002 a 0.55264583,0.55746527 0 0 0 -0.001,0.003 0.55264583,0.55746527 0 0 0 -4.9e-4,-0.003 z m 2.2102097,0 h 0.002 a 0.55264583,0.55746527 0 0 0 -10e-4,0.003 0.55264583,0.55746527 0 0 0 -4.9e-4,-0.003 z" />
</svg>
